<?xml version="1.0" encoding="UTF-8"?>
<svg version="1.1" xmlns="http://www.w3.org/2000/svg" width="616" height="405">
<path d="M0 0 C3.01956721 2.0426484 4.40365726 4.24072062 6.125 7.4375 C6.375 10.8125 6.375 10.8125 6.125 13.4375 C6.70507812 13.39109375 7.28515625 13.3446875 7.8828125 13.296875 C13.5317261 13.03586909 16.64742167 13.63155842 21.125 17.4375 C22.55162219 20.29074437 22.43533868 22.27204549 22.125 25.4375 C20.02673875 29.21437024 18.78570308 30.23692942 14.625 31.5 C11.125 31.4375 11.125 31.4375 8.625 29.8125 C7.125 27.4375 7.125 27.4375 7.375 24.6875 C7.74625 23.57375 7.74625 23.57375 8.125 22.4375 C11.875 21.3125 11.875 21.3125 14.125 22.4375 C14.62 23.9225 14.62 23.9225 15.125 25.4375 C15.80458603 23.04030568 15.80458603 23.04030568 16.125 20.4375 C14.19857392 18.10545289 14.19857392 18.10545289 10.8125 18 C7.04321084 18.16499915 7.04321084 18.16499915 4.125 20.4375 C2.05495592 23.54256612 1.8308918 24.03117481 2.1875 27.5 C2.77671122 30.39695516 3.35984043 33.02201848 5.125 35.4375 C11.86548838 39.14986401 18.5223461 41.61400529 26.125 39.4375 C32.60290141 37.2063637 38.22676257 33.10580325 42.125 27.4375 C42.62677294 24.60571213 42.37500683 22.33757927 42.125 19.4375 C45.125 17.4375 45.125 17.4375 48.1875 17.625 C51.125 18.4375 51.125 18.4375 53.125 21.4375 C52.8008631 24.75990324 52.51723697 26.04526303 50.125 28.4375 C48.805 28.4375 47.485 28.4375 46.125 28.4375 C45.99544922 29.50097656 45.99544922 29.50097656 45.86328125 30.5859375 C44.18501189 43.30383191 41.608161 55.85709688 39.125 68.4375 C38.135 68.4375 37.145 68.4375 36.125 68.4375 C36.7540625 68.91058594 37.383125 69.38367188 38.03125 69.87109375 C53.78506275 82.04233764 64.12775012 97.75786981 66.7578125 117.67578125 C68.43980611 134.32389053 64.92795148 151.88086886 54.625 165.375 C53.47031517 166.73939783 52.30430633 168.0943265 51.125 169.4375 C50.63128906 170.06140625 50.13757813 170.6853125 49.62890625 171.328125 C45.99604113 175.85689994 41.92713383 179.1988516 37.125 182.4375 C36.37347656 182.95441406 35.62195313 183.47132813 34.84765625 184.00390625 C19.78403123 193.74521319 -0.1757674 196.18394383 -17.64453125 192.6015625 C-35.21482371 188.20800912 -50.30943287 177.18407738 -59.8684082 161.82836914 C-69.85899172 144.89956238 -72.05913582 127.08679435 -67.84765625 108.0078125 C-63.18061147 90.87657181 -52.2810651 77.44716376 -37.875 67.4375 C-39.855 67.9325 -39.855 67.9325 -41.875 68.4375 C-42.87812088 63.54576122 -43.87483922 58.65277725 -44.86572266 53.75854492 C-45.20349564 52.0947782 -45.54299612 50.43136119 -45.88427734 48.76831055 C-46.37535091 46.37379004 -46.86013839 43.9780685 -47.34375 41.58203125 C-47.49686646 40.8422554 -47.64998291 40.10247955 -47.80773926 39.34028625 C-48.54537764 35.65408209 -49.0558458 32.19973853 -48.875 28.4375 C-50.855 28.1075 -52.835 27.7775 -54.875 27.4375 C-55.205 25.1275 -55.535 22.8175 -55.875 20.4375 C-54.1875 18.875 -54.1875 18.875 -51.875 17.4375 C-48.50463689 17.67824022 -47.28701979 18.02548021 -44.875 20.4375 C-44.9678125 22.04625 -44.9678125 22.04625 -45.0625 23.6875 C-44.82971205 28.34325904 -43.18556075 30.41880229 -39.875 33.4375 C-34.32761564 38.20745995 -28.85839917 40.8198491 -21.375 40.3125 C-15.60399081 39.46700291 -11.65874261 37.22124261 -7.5 33.0625 C-5.61088061 30.0108456 -4.94980749 28.02825934 -4.875 24.4375 C-6.60844875 20.70906036 -6.60844875 20.70906036 -9.875 18.4375 C-13.375 18.1875 -13.375 18.1875 -16.875 18.4375 C-17.535 19.0975 -18.195 19.7575 -18.875 20.4375 C-18.875 21.7575 -18.875 23.0775 -18.875 24.4375 C-18.25625 23.6640625 -18.25625 23.6640625 -17.625 22.875 C-15.875 21.4375 -15.875 21.4375 -13.8125 21.625 C-11.875 22.4375 -11.875 22.4375 -9.875 24.4375 C-10.0625 26.9375 -10.0625 26.9375 -10.875 29.4375 C-13.875 31.4375 -13.875 31.4375 -17.3125 31.3125 C-21.23186232 30.34984961 -22.66688059 29.7938415 -24.875 26.4375 C-25.4375 23 -25.4375 23 -24.875 19.4375 C-22.7022578 16.80733839 -20.92826212 14.96413106 -17.875 13.4375 C-16.33476004 13.36799459 -14.79165012 13.35297643 -13.25 13.375 C-12.02410156 13.38853516 -12.02410156 13.38853516 -10.7734375 13.40234375 C-9.83371094 13.41974609 -9.83371094 13.41974609 -8.875 13.4375 C-9.0296875 12.1690625 -9.0296875 12.1690625 -9.1875 10.875 C-8.77744927 6.36444198 -6.88161474 3.74477621 -3.875 0.4375 C-1.875 -0.5625 -1.875 -0.5625 0 0 Z M-1.875 6.4375 C-4.24192966 9.28576598 -4.24192966 9.28576598 -3.5 12.625 C-3.29375 13.553125 -3.0875 14.48125 -2.875 15.4375 C-1.885 15.4375 -0.895 15.4375 0.125 15.4375 C0.89216851 12.58671909 0.89216851 12.58671909 1.125 9.4375 C-0.18818262 7.53791919 -0.18818262 7.53791919 -1.875 6.4375 Z " fill="#F7B02C" transform="translate(309.875,71.5625)"/>
<path d="M0 0 C15.51853067 2.7532877 27.12795631 11.82081339 36.3515625 24.44140625 C51 47.17772512 51 47.17772512 51 58 C50.34 58 49.68 58 49 58 C47.58984375 56.3828125 47.58984375 56.3828125 45.9375 54.125 C42.5783034 49.67633423 38.97427832 45.55038569 35.21484375 41.4375 C32.55272795 38.5077641 29.97569201 35.51044664 27.41015625 32.49609375 C26.05086049 30.88204282 26.05086049 30.88204282 24 30 C38.74041427 56.47898125 59.99054832 72.70047403 89.0078125 80.97265625 C95.59542821 82.73098034 102.2699338 83.93657517 109 85 C109.80566406 85.13277344 110.61132812 85.26554687 111.44140625 85.40234375 C118.88945234 86.43404653 126.49897479 86.08283341 134 86 C132.56333984 85.39865234 132.56333984 85.39865234 131.09765625 84.78515625 C102.72799236 72.74975965 71.33388077 55.19370722 58.8359375 25.20703125 C58.56007812 24.47871094 58.28421875 23.75039063 58 23 C63.80440574 22.77351817 68.43935753 23.36260745 73.9375 25.1875 C74.63625244 25.41453613 75.33500488 25.64157227 76.05493164 25.87548828 C91.28406735 30.99610159 103.55926955 40.74041203 110.875 55.125 C113.02839095 59.46075129 114.42907815 63.18376187 115 68 C109.36901124 64.99935973 104.11915459 61.81213639 99 58 C110.15179261 70.26697187 129.09177983 80.15596855 145.5 82.5 C160.05742038 80.42036852 180.42947489 71.43429273 189.79296875 59.765625 C190.39044922 58.89164062 190.39044922 58.89164062 191 58 C190.50371094 58.38671875 190.00742187 58.7734375 189.49609375 59.171875 C185.15116853 62.50270951 180.81370839 65.39257462 176 68 C176.79134047 55.86611278 184.68337107 45.83287204 193.3125 37.8125 C203.26902692 29.39288663 216.13423873 22.70861495 229.5 22.6875 C231.2325 22.8421875 231.2325 22.8421875 233 23 C229.83882904 30.28269766 226.13978424 36.52430974 221.25 42.75 C220.5242981 43.68030029 220.5242981 43.68030029 219.78393555 44.62939453 C218.57521416 46.13018299 217.29330031 47.5714526 216 49 C215.34 49 214.68 49 214 49 C213.77699219 49.56460938 213.55398438 50.12921875 213.32421875 50.7109375 C203.32190954 68.00106493 174.33768556 79.19028641 157 86 C188.25523059 87.17861903 221.35149528 79.02915089 245.47265625 58.34375 C253.15095221 51.22322824 263.00654446 41.71482352 265 31 C257.34822371 38.44245718 250.57914432 46.44227553 243.91796875 54.77734375 C242 57 242 57 240 58 C242.91567128 39.53408191 255.15139974 19.40860196 270 8 C276.55163253 3.68943326 283.13753061 0.82710388 291 0 C289.82880139 6.21153549 288.10634557 11.80757063 285.5 17.5625 C285.1503418 18.33553467 284.80068359 19.10856934 284.44042969 19.9050293 C278.10234349 33.53414047 270.08915083 45.75306316 259 56 C258.34 56 257.68 56 257 56 C257 56.66 257 57.32 257 58 C249.46333048 64.6675761 240.94969332 69.51071835 232 74 C233.29292969 74.03738281 234.58585938 74.07476562 235.91796875 74.11328125 C268.15825073 75.24119397 268.15825073 75.24119397 279.08203125 86.0625 C283 91.05401054 283 91.05401054 283 95 C265.53347626 98.56399557 249.24542929 96.91739254 233.92578125 87.46484375 C232 86 232 86 230 83 C233.30994713 81.34502644 236.99123 81.89915665 240.625 81.9375 C241.82769531 81.94426758 241.82769531 81.94426758 243.0546875 81.95117188 C245.03649006 81.96296832 247.01825433 81.98090395 249 82 C236.37325436 79.90799481 225.94235927 78.69877258 213.70898438 82.8605957 C207.59842051 84.91107717 201.42156807 86.38443654 195.125 87.75 C194.17455811 87.96035889 193.22411621 88.17071777 192.24487305 88.38745117 C181.92148235 90.58861017 171.83476413 91.16345372 161.29296875 91.203125 C160.09174881 91.20882507 158.89052887 91.21452515 157.65290833 91.22039795 C155.11732856 91.22980309 152.58173683 91.23636398 150.04614258 91.24023438 C146.23691422 91.24987494 142.42824127 91.28091583 138.61914062 91.3125 C119.03833246 91.39953398 100.66051922 89.80949302 81.8125 84.375 C80.11963867 83.90707031 80.11963867 83.90707031 78.39257812 83.4296875 C70.39840561 81.19920281 70.39840561 81.19920281 68 80 C59.51212816 79.39672977 51.33758684 80.49385528 43 82 C44.13179687 81.97679687 45.26359375 81.95359375 46.4296875 81.9296875 C47.91145175 81.91093099 49.39322312 81.89273066 50.875 81.875 C51.62136719 81.85824219 52.36773437 81.84148437 53.13671875 81.82421875 C55.09194461 81.8066041 57.04742021 81.89679811 59 82 C59.99 82.99 59.99 82.99 61 84 C48.89371627 94.36155461 34.55979736 97.73430349 18.875 96.6875 C15.14680354 96.38404215 11.596905 96.04686041 8 95 C8.42301152 90.20586939 10.39464364 87.05721867 14 84 C27.99671569 75.14186349 42.94353297 74.46424481 59 74 C58.20078125 73.59910156 57.4015625 73.19820313 56.578125 72.78515625 C28.78804888 58.40085628 10.77043383 35.01147547 0.7421875 5.6875 C0 3 0 3 0 0 Z M96 55 C96 55.66 96 56.32 96 57 C96.66 56.67 97.32 56.34 98 56 C97.34 55.67 96.68 55.34 96 55 Z " fill="#F1AC38" transform="translate(163,238)"/>
<path d="M0 0 C-1.17119861 6.21153549 -2.89365443 11.80757063 -5.5 17.5625 C-6.0244873 18.722052 -6.0244873 18.722052 -6.55957031 19.9050293 C-12.89765651 33.53414047 -20.91084917 45.75306316 -32 56 C-32.66 56 -33.32 56 -34 56 C-34 56.66 -34 57.32 -34 58 C-41.53666952 64.6675761 -50.05030668 69.51071835 -59 74 C-57.70707031 74.03738281 -56.41414063 74.07476562 -55.08203125 74.11328125 C-22.84174927 75.24119397 -22.84174927 75.24119397 -11.91796875 86.0625 C-8 91.05401054 -8 91.05401054 -8 95 C-25.46652374 98.56399557 -41.75457071 96.91739254 -57.07421875 87.46484375 C-59 86 -59 86 -61 83 C-57.69005287 81.34502644 -54.00877 81.89915665 -50.375 81.9375 C-49.57320313 81.94201172 -48.77140625 81.94652344 -47.9453125 81.95117188 C-45.96350994 81.96296832 -43.98174567 81.98090395 -42 82 C-52.66573332 80.23380943 -63.21203917 79.46478743 -74 79 C-74 78.34 -74 77.68 -74 77 C-72.68 77 -71.36 77 -70 77 C-70 76.01 -70 75.02 -70 74 C-68.97261719 73.45472656 -67.94523437 72.90945313 -66.88671875 72.34765625 C-50.17443111 63.32103883 -36.14524266 52.03845805 -27 35 C-26.3053789 32.80320086 -26.3053789 32.80320086 -26 31 C-33.65177629 38.44245718 -40.42085568 46.44227553 -47.08203125 54.77734375 C-49 57 -49 57 -51 58 C-48.09331263 39.59097998 -35.8643431 19.33098019 -21 8 C-14.71277176 3.97216613 -7.60063989 0 0 0 Z " fill="#E89631" transform="translate(454,238)"/>
<path d="M0 0 C15.51853067 2.7532877 27.12795631 11.82081339 36.3515625 24.44140625 C51 47.17772512 51 47.17772512 51 58 C50.34 58 49.68 58 49 58 C47.58984375 56.3828125 47.58984375 56.3828125 45.9375 54.125 C42.5783034 49.67633423 38.97427832 45.55038569 35.21484375 41.4375 C32.55272795 38.5077641 29.97569201 35.51044664 27.41015625 32.49609375 C26.05086049 30.88204282 26.05086049 30.88204282 24 30 C35.05144287 49.85228795 49.02571956 64.5781449 70 74 C70 74.99 70 75.98 70 77 C70.99 77 71.98 77 73 77 C73 77.66 73 78.32 73 79 C72.23333008 79.05534912 71.46666016 79.11069824 70.67675781 79.16772461 C67.20089775 79.4207011 63.72545646 79.67904042 60.25 79.9375 C59.0434375 80.02451172 57.836875 80.11152344 56.59375 80.20117188 C55.43359375 80.28818359 54.2734375 80.37519531 53.078125 80.46484375 C52.00981445 80.543396 50.94150391 80.62194824 49.84082031 80.70288086 C47.4543827 80.95247647 45.29954178 81.33779018 43 82 C44.13179687 81.97679687 45.26359375 81.95359375 46.4296875 81.9296875 C47.91145175 81.91093099 49.39322312 81.89273066 50.875 81.875 C51.62136719 81.85824219 52.36773437 81.84148437 53.13671875 81.82421875 C55.09194461 81.8066041 57.04742021 81.89679811 59 82 C59.99 82.99 59.99 82.99 61 84 C48.89371627 94.36155461 34.55979736 97.73430349 18.875 96.6875 C15.14680354 96.38404215 11.596905 96.04686041 8 95 C8.42301152 90.20586939 10.39464364 87.05721867 14 84 C27.99671569 75.14186349 42.94353297 74.46424481 59 74 C58.20078125 73.59910156 57.4015625 73.19820313 56.578125 72.78515625 C28.78804888 58.40085628 10.77043383 35.01147547 0.7421875 5.6875 C0 3 0 3 0 0 Z " fill="#EA952A" transform="translate(163,238)"/>
<path d="M0 0 C17.49 0 34.98 0 53 0 C53 8.91 53 17.82 53 27 C52.34 27 51.68 27 51 27 C50.84144531 25.99839844 50.68289063 24.99679688 50.51953125 23.96484375 C48.86219092 13.52013057 48.86219092 13.52013057 43 5 C40.36 4.01 37.72 3.02 35 2 C35 20.48 35 38.96 35 58 C37.31 58 39.62 58 42 58 C42 58.66 42 59.32 42 60 C31.77 60 21.54 60 11 60 C11 59.34 11 58.68 11 58 C12.98 58 14.96 58 17 58 C17 39.52 17 21.04 17 2 C10.62130301 4.12623233 7.98132631 6.09489627 5.05859375 11.85546875 C3.0179301 16.79446628 2.35618991 21.69399862 2 27 C1.34 27 0.68 27 0 27 C0 18.09 0 9.18 0 0 Z " fill="#020000" transform="translate(285,184)"/>
<path d="M0 0 C-3.16117096 7.28269766 -6.86021576 13.52430974 -11.75 19.75 C-12.23380127 20.3702002 -12.71760254 20.99040039 -13.21606445 21.62939453 C-14.42478584 23.13018299 -15.70669969 24.5714526 -17 26 C-17.66 26 -18.32 26 -19 26 C-19.23332031 26.57234375 -19.46664063 27.1446875 -19.70703125 27.734375 C-22.27843402 32.24015629 -26.65897332 35.2828149 -31 38 C-33.71052548 38.6310218 -35.22153584 38.48321116 -38 38 C-38 37.34 -38 36.68 -38 36 C-37.01 35.505 -37.01 35.505 -36 35 C-35.61781233 33.34385343 -35.28604898 31.67542976 -35 30 C-34.67 29.34 -34.34 28.68 -34 28 C-35.65 27.67 -37.3 27.34 -39 27 C-39.99 29.475 -39.99 29.475 -41 32 C-41.99 31.67 -42.98 31.34 -44 31 C-46.14255793 31.38932856 -46.14255793 31.38932856 -48 32 C-46.21623413 21.65415796 -43.58049672 17.05427392 -35.21484375 10.9765625 C-24.82174037 4.04782691 -12.70703431 -1.13455663 0 0 Z " fill="#F3A62B" transform="translate(396,261)"/>
<path d="M0 0 C3.01956721 2.0426484 4.40365726 4.24072062 6.125 7.4375 C6.375 10.8125 6.375 10.8125 6.125 13.4375 C6.70507812 13.39109375 7.28515625 13.3446875 7.8828125 13.296875 C13.5317261 13.03586909 16.64742167 13.63155842 21.125 17.4375 C22.55162219 20.29074437 22.43533868 22.27204549 22.125 25.4375 C20.02673875 29.21437024 18.78570308 30.23692942 14.625 31.5 C11.125 31.4375 11.125 31.4375 8.625 29.8125 C7.125 27.4375 7.125 27.4375 7.375 24.6875 C7.6225 23.945 7.87 23.2025 8.125 22.4375 C11.875 21.3125 11.875 21.3125 14.125 22.4375 C14.62 23.9225 14.62 23.9225 15.125 25.4375 C15.80458603 23.04030568 15.80458603 23.04030568 16.125 20.4375 C14.19857392 18.10545289 14.19857392 18.10545289 10.8125 18 C7.04321084 18.16499915 7.04321084 18.16499915 4.125 20.4375 C2.05495592 23.54256612 1.8308918 24.03117481 2.1875 27.5 C2.76572923 30.39114613 3.44893637 32.97270055 5.125 35.4375 C5.785 35.7675 6.445 36.0975 7.125 36.4375 C6.135 36.4375 5.145 36.4375 4.125 36.4375 C3.795 35.7775 3.465 35.1175 3.125 34.4375 C-0.30907381 33.60167032 -0.30907381 33.60167032 -3.875 33.4375 C-4.535 34.0975 -5.195 34.7575 -5.875 35.4375 C-5.215 36.4275 -4.555 37.4175 -3.875 38.4375 C-8.825 38.9325 -8.825 38.9325 -13.875 39.4375 C-13.1325 38.73625 -12.39 38.035 -11.625 37.3125 C-6.30250006 31.90842241 -6.30250006 31.90842241 -4.875 24.75 C-5.62621354 21.4758843 -5.62621354 21.4758843 -7.5 19.5 C-10.76804558 18.03797961 -13.33877389 18.11007166 -16.875 18.4375 C-17.535 19.0975 -18.195 19.7575 -18.875 20.4375 C-18.875 21.7575 -18.875 23.0775 -18.875 24.4375 C-18.4625 23.921875 -18.05 23.40625 -17.625 22.875 C-15.875 21.4375 -15.875 21.4375 -13.8125 21.625 C-11.875 22.4375 -11.875 22.4375 -9.875 24.4375 C-10.0625 26.9375 -10.0625 26.9375 -10.875 29.4375 C-13.875 31.4375 -13.875 31.4375 -17.3125 31.3125 C-21.23186232 30.34984961 -22.66688059 29.7938415 -24.875 26.4375 C-25.4375 23 -25.4375 23 -24.875 19.4375 C-22.7022578 16.80733839 -20.92826212 14.96413106 -17.875 13.4375 C-16.33476004 13.36799459 -14.79165012 13.35297643 -13.25 13.375 C-12.02410156 13.38853516 -12.02410156 13.38853516 -10.7734375 13.40234375 C-9.83371094 13.41974609 -9.83371094 13.41974609 -8.875 13.4375 C-8.978125 12.591875 -9.08125 11.74625 -9.1875 10.875 C-8.77744927 6.36444198 -6.88161474 3.74477621 -3.875 0.4375 C-1.875 -0.5625 -1.875 -0.5625 0 0 Z M-1.875 6.4375 C-4.24192966 9.28576598 -4.24192966 9.28576598 -3.5 12.625 C-3.29375 13.553125 -3.0875 14.48125 -2.875 15.4375 C-1.885 15.4375 -0.895 15.4375 0.125 15.4375 C0.89216851 12.58671909 0.89216851 12.58671909 1.125 9.4375 C-0.18818262 7.53791919 -0.18818262 7.53791919 -1.875 6.4375 Z " fill="#F5BC45" transform="translate(309.875,71.5625)"/>
<path d="M0 0 C2.31243792 -0.02685412 4.6249627 -0.04632841 6.9375 -0.0625 C8.22527344 -0.07410156 9.51304687 -0.08570313 10.83984375 -0.09765625 C14 0 14 0 15 1 C16.155 1.165 17.31 1.33 18.5 1.5 C22 2 22 2 23 3 C24.051875 3.103125 25.10375 3.20625 26.1875 3.3125 C32.86484686 4.51661173 36.34160498 7.9854737 40.1171875 13.31640625 C41 15 41 15 41 18 C23.53347626 21.56399557 7.24542929 19.91739254 -8.07421875 10.46484375 C-10 9 -10 9 -12 6 C-8.87238992 4.43619496 -5.55397484 4.85679305 -2.125 4.875 C-1.40441406 4.87113281 -0.68382812 4.86726563 0.05859375 4.86328125 C3.50815011 4.86963402 6.70440191 4.91297026 10 6 C10 5.34 10 4.68 10 4 C6.7 3.34 3.4 2.68 0 2 C0 1.34 0 0.68 0 0 Z " fill="#EB9528" transform="translate(405,315)"/>
<path d="M0 0 C17.49 0 34.98 0 53 0 C53 8.91 53 17.82 53 27 C52.34 27 51.68 27 51 27 C50.84144531 25.99839844 50.68289063 24.99679688 50.51953125 23.96484375 C48.86219092 13.52013057 48.86219092 13.52013057 43 5 C40.36 4.01 37.72 3.02 35 2 C35 20.48 35 38.96 35 58 C37.31 58 39.62 58 42 58 C42 58.66 42 59.32 42 60 C31.77 60 21.54 60 11 60 C11 59.34 11 58.68 11 58 C12.98 58 14.96 58 17 58 C17 39.52 17 21.04 17 2 C10.62130301 4.12623233 7.98132631 6.09489627 5.05859375 11.85546875 C3.0179301 16.79446628 2.35618991 21.69399862 2 27 C1.34 27 0.68 27 0 27 C0 18.09 0 9.18 0 0 Z M17 1 C17.33 20.14 17.66 39.28 18 59 C23.28 59 28.56 59 34 59 C34 39.86 34 20.72 34 1 C28.39 1 22.78 1 17 1 Z " fill="#442C08" transform="translate(285,184)"/>
<path d="M0 0 C2.61750403 2.36895765 4.17897014 4.8902765 5.9375 7.9375 C15.14294967 22.54656792 29.39385993 32.98956688 45 40 C45 40.99 45 41.98 45 43 C45.99 43 46.98 43 48 43 C48 43.66 48 44.32 48 45 C38.1 45.66 28.2 46.32 18 47 C18 46.34 18 45.68 18 45 C20.31 45 22.62 45 25 45 C25 44.34 25 43.68 25 43 C19.39 43 13.78 43 8 43 C8 42.67 8 42.34 8 42 C13.44452918 40.92375586 18.84582589 40.67807034 24.375 40.4375 C25.30183594 40.39431641 26.22867188 40.35113281 27.18359375 40.30664062 C29.45560294 40.20123814 31.72770925 40.09911394 34 40 C33.20078125 39.59910156 32.4015625 39.19820313 31.578125 38.78515625 C14.6152476 30.00507534 2.05333096 18.44330637 -9 3 C-7.68 2.67 -6.36 2.34 -5 2 C-4.67 3.98 -4.34 5.96 -4 8 C-2.68 8 -1.36 8 0 8 C0 5.36 0 2.72 0 0 Z " fill="#E6A13F" transform="translate(188,272)"/>
<path d="M0 0 C0.94101562 0.00322266 1.88203125 0.00644531 2.8515625 0.00976562 C3.83640625 0.01814453 4.82125 0.02652344 5.8359375 0.03515625 C6.82851563 0.03966797 7.82109375 0.04417969 8.84375 0.04882812 C11.29950472 0.06063464 13.75522856 0.07857043 16.2109375 0.09765625 C15.8809375 3.06765625 15.5509375 6.03765625 15.2109375 9.09765625 C16.1803125 9.40703125 17.1496875 9.71640625 18.1484375 10.03515625 C21.2109375 11.09765625 21.2109375 11.09765625 22.2109375 12.09765625 C23.6996561 12.18435057 25.1923825 12.20469119 26.68359375 12.1953125 C28.03227539 12.19047852 28.03227539 12.19047852 29.40820312 12.18554688 C30.82649414 12.17297852 30.82649414 12.17297852 32.2734375 12.16015625 C33.22283203 12.15564453 34.17222656 12.15113281 35.15039062 12.14648438 C37.50396815 12.13465735 39.85742227 12.1181765 42.2109375 12.09765625 C42.2109375 11.10765625 42.2109375 10.11765625 42.2109375 9.09765625 C41.2209375 9.09765625 40.2309375 9.09765625 39.2109375 9.09765625 C39.2109375 6.78765625 39.2109375 4.47765625 39.2109375 2.09765625 C41.85845754 4.67550471 44.15525815 7.01413723 46.2109375 10.09765625 C46.2109375 11.08765625 46.2109375 12.07765625 46.2109375 13.09765625 C28.74441376 16.66165182 12.45636679 15.01504879 -2.86328125 5.5625 C-4.7890625 4.09765625 -4.7890625 4.09765625 -6.7890625 1.09765625 C-4.33631109 -0.12871945 -2.7384844 -0.01649689 0 0 Z " fill="#EC9A2A" transform="translate(399.7890625,319.90234375)"/>
<path d="M0 0 C1.61031868 3.22063736 0.06849117 5.68205372 -1 9 C-1.433125 10.3921875 -1.433125 10.3921875 -1.875 11.8125 C-3.24317984 14.47284968 -4.30126113 14.85508048 -7 16 C-8.70921589 17.5412312 -8.70921589 17.5412312 -10 19 C-6.98968256 19.93423645 -6.13349732 20.04449911 -3 19 C-2.26676204 16.98491642 -2.26676204 16.98491642 -2 15 C-0.68 15.33 0.64 15.66 2 16 C1.154375 16.89460938 0.30875 17.78921875 -0.5625 18.7109375 C-6.49254228 25.02062846 -12.26025456 31.31378168 -17.51171875 38.20703125 C-19 40 -19 40 -21 41 C-18.83083184 27.26193496 -10.53068302 9.46428474 0 0 Z " fill="#E89C39" transform="translate(424,255)"/>
<path d="M0 0 C8.38803473 6.09511174 12.76830628 16.0238101 16.875 25.3125 C17.16101074 25.95735352 17.44702148 26.60220703 17.74169922 27.26660156 C19.65803384 31.76682282 20.90988542 36.23207167 22 41 C21.34 41 20.68 41 20 41 C18.58984375 39.3828125 18.58984375 39.3828125 16.9375 37.125 C13.51792105 32.57753472 9.80332109 28.41456522 5.91796875 24.26171875 C4.18877438 22.22260767 3.05511195 20.43959748 2 18 C3.32 18.33 4.64 18.66 6 19 C6 18.34 6 17.68 6 17 C6.99 17 7.98 17 9 17 C8.01 14.03 7.02 11.06 6 8 C5.34 8 4.68 8 4 8 C3.67 7.34 3.34 6.68 3 6 C2.01 5.34 1.02 4.68 0 4 C0 2.68 0 1.36 0 0 Z " fill="#E69E3D" transform="translate(192,255)"/>
<path d="M0 0 C1.32 0.66 2.64 1.32 4 2 C4 2.66 4 3.32 4 4 C4.66 4 5.32 4 6 4 C8 7 8 7 8 11 C8.66 11 9.32 11 10 11 C10 12.65 10 14.3 10 16 C8.68 16 7.36 16 6 16 C6 15.34 6 14.68 6 14 C5.46375 13.87625 4.9275 13.7525 4.375 13.625 C1.5361714 12.87793984 -1.22223202 11.94696636 -4 11 C-4.66 11.66 -5.32 12.32 -6 13 C-7.98821313 13.39764263 -9.98944339 13.73775349 -12 14 C-12 13.34 -12 12.68 -12 12 C-12.66 12 -13.32 12 -14 12 C-14 11.01 -14 10.02 -14 9 C-13.01 9 -12.02 9 -11 9 C-11 8.34 -11 7.68 -11 7 C-11.66 6.67 -12.32 6.34 -13 6 C-10 5 -10 5 -7.0625 5.25 C-3.7799109 5.32452293 -3.7799109 5.32452293 -1.625 2.5 C-1.08875 1.675 -0.5525 0.85 0 0 Z " fill="#F6AC2C" transform="translate(263,283)"/>
<path d="M0 0 C1.5 1.125 1.5 1.125 3 3 C3.1875 6.1875 3.1875 6.1875 3 9 C3.58007812 8.95359375 4.16015625 8.9071875 4.7578125 8.859375 C10.4067261 8.59836909 13.52242167 9.19405842 18 13 C19.42662219 15.85324437 19.31033868 17.83454549 19 21 C16.90173875 24.77687024 15.66070308 25.79942942 11.5 27.0625 C8 27 8 27 5.5 25.375 C4 23 4 23 4.25 20.25 C4.4975 19.5075 4.745 18.765 5 18 C8.75 16.875 8.75 16.875 11 18 C11.33 18.99 11.66 19.98 12 21 C12.67958603 18.60280568 12.67958603 18.60280568 13 16 C10.4345406 13.4345406 8.52313332 13.45953913 5 13 C5 12.67 5 12.34 5 12 C6.98 12 8.96 12 11 12 C11 11.34 11 10.68 11 10 C8.03 10 5.06 10 2 10 C0.68373308 6.38026598 0 3.90432869 0 0 Z " fill="#F4B946" transform="translate(313,76)"/>
<path d="M0 0 C0.99 0 1.98 0 3 0 C3 0.66 3 1.32 3 2 C3.66 2 4.32 2 5 2 C5.52335055 5.67016347 5.11602579 6.84137434 2.8828125 9.89453125 C1.97626015 10.87905239 1.05647034 11.85152027 0.125 12.8125 C-0.33519531 13.31458984 -0.79539062 13.81667969 -1.26953125 14.33398438 C-2.46280027 15.60507529 -3.72718923 16.80856565 -5 18 C-5.66 18 -6.32 18 -7 18 C-7 18.66 -7 19.32 -7 20 C-8.98 20.99 -8.98 20.99 -11 22 C-11 21.34 -11 20.68 -11 20 C-11.66 20 -12.32 20 -13 20 C-13 20.99 -13 21.98 -13 23 C-13.99 23 -14.98 23 -16 23 C-16 23.66 -16 24.32 -16 25 C-16.99 25 -17.98 25 -19 25 C-17.2871995 21.17913735 -15.36502903 18.95138387 -11.9375 16.5625 C-9.83642314 14.86808318 -9.02156422 13.46878019 -8 11 C-7.34 11 -6.68 11 -6 11 C-5.7525 10.29875 -5.505 9.5975 -5.25 8.875 C-3.82049359 5.58713526 -2.18301951 2.84454057 0 0 Z " fill="#EA9628" transform="translate(427,276)"/>
<path d="M0 0 C2.9375 0.8125 2.9375 0.8125 4.9375 3.8125 C4.6133631 7.13490324 4.32973697 8.42026303 1.9375 10.8125 C0.6175 10.8125 -0.7025 10.8125 -2.0625 10.8125 C-2.7225 15.4325 -3.3825 20.0525 -4.0625 24.8125 C-4.3925 24.8125 -4.7225 24.8125 -5.0625 24.8125 C-5.08962066 23.37510487 -5.10895067 21.93756137 -5.125 20.5 C-5.13660156 19.69949219 -5.14820313 18.89898437 -5.16015625 18.07421875 C-5.0625 15.8125 -5.0625 15.8125 -4.0625 12.8125 C-4.454375 13.245625 -4.84625 13.67875 -5.25 14.125 C-7.34565135 16.07612367 -9.61130452 17.34178271 -12.0625 18.8125 C-13.81399165 20.39495275 -13.81399165 20.39495275 -15.0625 21.8125 C-15.7225 21.1525 -16.3825 20.4925 -17.0625 19.8125 C-16.51980469 19.35359375 -15.97710937 18.8946875 -15.41796875 18.421875 C-14.70253906 17.80828125 -13.98710937 17.1946875 -13.25 16.5625 C-12.54230469 15.95921875 -11.83460938 15.3559375 -11.10546875 14.734375 C-9.10815851 12.85545217 -7.51009324 11.1414355 -6.0625 8.8125 C-6.0625 7.61625 -6.0625 6.42 -6.0625 5.1875 C-6.0625 4.07375 -6.0625 2.96 -6.0625 1.8125 C-3.0625 -0.1875 -3.0625 -0.1875 0 0 Z " fill="#EEB546" transform="translate(358.0625,89.1875)"/>
<path d="M0 0 C2.375 0.8125 2.375 0.8125 4.375 2.8125 C4.375 5.14583333 4.375 7.47916667 4.375 9.8125 C5.365 11.2975 5.365 11.2975 6.375 12.8125 C5.055 12.8125 3.735 12.8125 2.375 12.8125 C2.705 13.946875 3.035 15.08125 3.375 16.25 C4.53347067 20.81045849 4.56993291 25.13411006 4.375 29.8125 C2.75393452 26.86325061 1.89056732 24.17443006 1.25 20.875 C1.08242188 20.04097656 0.91484375 19.20695312 0.7421875 18.34765625 C0.37288823 15.79791981 0.31057472 13.38490933 0.375 10.8125 C-2.595 10.3175 -2.595 10.3175 -5.625 9.8125 C-5.955 7.5025 -6.285 5.1925 -6.625 2.8125 C-4.2650337 0.62734602 -3.28118881 -0.23437063 0 0 Z " fill="#ECB249" transform="translate(260.625,89.1875)"/>
<path d="M0 0 C6.41676272 1.06946045 8.86601623 2.1546883 12.6875 7.25 C15.47017058 13.0803574 16.26714418 18.58853969 16 25 C17.32 25.33 18.64 25.66 20 26 C19.34 26 18.68 26 18 26 C18 26.66 18 27.32 18 28 C17.34 28 16.68 28 16 28 C15.67 25.69 15.34 23.38 15 21 C14.01 21 13.02 21 12 21 C12.495 16.545 12.495 16.545 13 12 C11.68 11.34 10.36 10.68 9 10 C8.71125 9.01 8.4225 8.02 8.125 7 C7.75375 6.01 7.3825 5.02 7 4 C5.02 3.34 3.04 2.68 1 2 C1 19.82 1 37.64 1 56 C0.67 56 0.34 56 0 56 C0 37.52 0 19.04 0 0 Z " fill="#BE8D2D" transform="translate(320,186)"/>
<path d="M0 0 C3.395177 3.07182681 5.87597306 6.13959595 6.1875 10.8125 C6.125625 11.534375 6.06375 12.25625 6 13 C6.66 13 7.32 13 8 13 C10 16 10 16 10 19 C5.55654335 18.80823553 3.52202638 18.48125444 0.19921875 15.41796875 C-0.65719486 14.3563316 -1.4943014 13.27886097 -2.3125 12.1875 C-2.95541992 11.38602539 -2.95541992 11.38602539 -3.61132812 10.56835938 C-5.75432643 7.85032876 -7.60879978 5.17439609 -9 2 C-7.68 2 -6.36 2 -5 2 C-4.67 3.98 -4.34 5.96 -4 8 C-2.68 8 -1.36 8 0 8 C0 5.36 0 2.72 0 0 Z " fill="#E39D44" transform="translate(188,272)"/>
<path d="M0 0 C5.58918919 0.76216216 5.58918919 0.76216216 7.78125 2.03125 C10.83960032 3.36658605 13.43029502 3.1913941 16.75 3.125 C17.92046875 3.10695313 19.0909375 3.08890625 20.296875 3.0703125 C21.18890625 3.04710937 22.0809375 3.02390625 23 3 C23.33 4.98 23.66 6.96 24 9 C18.72 9 13.44 9 8 9 C8 7.68 8 6.36 8 5 C7.01 5.33 6.02 5.66 5 6 C4.54625 5.525625 4.0925 5.05125 3.625 4.5625 C2.06741796 2.90972192 2.06741796 2.90972192 0 2 C0 1.34 0 0.68 0 0 Z " fill="#FAB82E" transform="translate(294,319)"/>
<path d="M0 0 C0.99 0.33 1.98 0.66 3 1 C3 1.99 3 2.98 3 4 C2.34 4 1.68 4 1 4 C1.14183696 5.75032844 1.28863429 7.50025534 1.4375 9.25 C1.51871094 10.22453125 1.59992188 11.1990625 1.68359375 12.203125 C1.89301435 14.84476797 1.89301435 14.84476797 2.52734375 16.68554688 C3.21811193 20.06802744 3.00712368 23.39889985 2.87890625 26.828125 C2.85529526 27.57713074 2.83168427 28.32613647 2.80735779 29.09783936 C2.73099344 31.48209888 2.64685283 33.86601105 2.5625 36.25 C2.50925201 37.86977486 2.4565118 39.48956651 2.40429688 41.109375 C2.27541537 45.07313521 2.13956072 49.03660201 2 53 C2.66 53.33 3.32 53.66 4 54 C2.68 54 1.36 54 0 54 C0 36.18 0 18.36 0 0 Z " fill="#F4B63A" transform="translate(321,188)"/>
<path d="M0 0 C4.62 0 9.24 0 14 0 C12.35 1.32 10.7 2.64 9 4 C5.10472234 8.13135509 3.1245803 12.81285979 1 18 C0.67 18 0.34 18 0 18 C0 12.06 0 6.12 0 0 Z " fill="#070103" transform="translate(286,185)"/>
<path d="M0 0 C3.63 0 7.26 0 11 0 C11 5.28 11 10.56 11 16 C10.01 16 9.02 16 8 16 C7.62875 14.4221875 7.62875 14.4221875 7.25 12.8125 C6.21787462 9.1779442 4.61009535 6.77322631 2 4 C1.34 3.67 0.68 3.34 0 3 C0 2.01 0 1.02 0 0 Z " fill="#090501" transform="translate(326,185)"/>
<path d="M0 0 C2.64752004 2.57784846 4.94432065 4.91648098 7 8 C7 8.99 7 9.98 7 11 C-6.43379248 13.74112798 -18.94814412 13.31443885 -32 9 C-29.0719073 8.1643571 -26.41823857 7.83794514 -23.375 7.8125 C-22.21097656 7.79123047 -22.21097656 7.79123047 -21.0234375 7.76953125 C-19 8 -19 8 -17 10 C-14.86747907 10.27714896 -14.86747907 10.27714896 -12.4296875 10.1953125 C-11.53378906 10.18886719 -10.63789063 10.18242187 -9.71484375 10.17578125 C-8.77769531 10.15902344 -7.84054687 10.14226562 -6.875 10.125 C-5.93011719 10.11597656 -4.98523438 10.10695313 -4.01171875 10.09765625 C-1.67422708 10.07404522 0.66276123 10.04111516 3 10 C3 9.01 3 8.02 3 7 C2.01 7 1.02 7 0 7 C0 4.69 0 2.38 0 0 Z " fill="#E29D4A" transform="translate(439,322)"/>
<path d="M0 0 C7.041373 6.42007539 12.5679832 14.70801857 15 24 C14.67 24.99 14.34 25.98 14 27 C12.07949774 25.75590105 10.16374686 24.50446565 8.25 23.25 C6.64898437 22.20585937 6.64898437 22.20585937 5.015625 21.140625 C2.36834639 19.26146868 0.2010864 17.37204457 -2 15 C-1.236875 15.309375 -0.47375 15.61875 0.3125 15.9375 C2.18789677 16.67893593 4.08684652 17.36228217 6 18 C6 18.66 6 19.32 6 20 C6.99 19.67 7.98 19.34 9 19 C9.73323796 16.98491642 9.73323796 16.98491642 10 15 C9.34 15 8.68 15 8 15 C7.34 12.69 6.68 10.38 6 8 C5.34 8 4.68 8 4 8 C4 7.34 4 6.68 4 6 C2.68 5.34 1.36 4.68 0 4 C0 2.68 0 1.36 0 0 Z " fill="#EDB554" transform="translate(263,279)"/>
<path d="M0 0 C0.33 0 0.66 0 1 0 C0.38641858 8.80171974 -1.29549385 17.35954742 -3 26 C-4.98567708 25.44661458 -6.97135417 24.89322917 -8.95703125 24.33984375 C-11.19244159 23.80436183 -11.19244159 23.80436183 -14 25 C-14 24.01 -14 23.02 -14 22 C-11.6875 20.875 -11.6875 20.875 -9 20 C-8.01 20.66 -7.02 21.32 -6 22 C-6 20.35 -6 18.7 -6 17 C-6.66 17.33 -7.32 17.66 -8 18 C-7.67 16.68 -7.34 15.36 -7 14 C-6.01 14 -5.02 14 -4 14 C-3.896875 13.360625 -3.79375 12.72125 -3.6875 12.0625 C-2.76096927 7.93522674 -1.38339371 3.99357051 0 0 Z " fill="#F0B241" transform="translate(352,114)"/>
<path d="M0 0 C0.66 0.33 1.32 0.66 2 1 C2.59355614 3.64860427 2.74209269 6.29197322 3 9 C2.34 9 1.68 9 1 9 C-0.95627529 13.71807569 -1.40288656 17.04313417 0 22 C2.40858714 23.8624438 2.40858714 23.8624438 5 25 C5.33 25.66 5.66 26.32 6 27 C3.69 27.66 1.38 28.32 -1 29 C-4.04702594 22.02799149 -4.15890535 16.47005253 -3 9 C-2.34 9 -1.68 9 -1 9 C-1.020625 7.700625 -1.04125 6.40125 -1.0625 5.0625 C-1.08399454 3.70834367 -1.07148199 2.35243917 -1 1 C-0.67 0.67 -0.34 0.34 0 0 Z " fill="#F2A527" transform="translate(244,183)"/>
<path d="M0 0 C1.5 1.125 1.5 1.125 3 3 C3.1875 6.1875 3.1875 6.1875 3 9 C3.58007812 8.95359375 4.16015625 8.9071875 4.7578125 8.859375 C10.4067261 8.59836909 13.52242167 9.19405842 18 13 C19.38125018 15.76250036 19.19079306 17.94731099 19 21 C18.34 21.66 17.68 22.32 17 23 C17.33 21.02 17.66 19.04 18 17 C17.34 17 16.68 17 16 17 C15.67 18.32 15.34 19.64 15 21 C14.01 21 13.02 21 12 21 C12.309375 19.824375 12.309375 19.824375 12.625 18.625 C12.74875 17.75875 12.8725 16.8925 13 16 C10.4345406 13.4345406 8.52313332 13.45953913 5 13 C5 12.67 5 12.34 5 12 C6.98 12 8.96 12 11 12 C11 11.34 11 10.68 11 10 C8.03 10 5.06 10 2 10 C0.68373308 6.38026598 0 3.90432869 0 0 Z " fill="#F0BD5D" transform="translate(313,76)"/>
<path d="M0 0 C0.66 1.65 1.32 3.3 2 5 C1.37351562 4.97679688 0.74703125 4.95359375 0.1015625 4.9296875 C-0.71570313 4.91164063 -1.53296875 4.89359375 -2.375 4.875 C-3.59316406 4.84019531 -3.59316406 4.84019531 -4.8359375 4.8046875 C-7.21342243 4.78629949 -7.21342243 4.78629949 -9 7 C-9.69748583 8.31747324 -10.36959957 9.64914193 -11 11 C-11.33 9.35 -11.66 7.7 -12 6 C-12.66 7.98 -13.32 9.96 -14 12 C-13.34 12 -12.68 12 -12 12 C-12.33 12.99 -12.66 13.98 -13 15 C-15 13 -15 13 -15.4375 9.6875 C-14.89444451 5.11031804 -13.51844617 3.84826595 -10 1 C-6.78548731 -0.60725635 -3.56387464 -0.05748185 0 0 Z " fill="#EFBE5A" transform="translate(300,85)"/>
<path d="M0 0 C0.474375 0.639375 0.94875 1.27875 1.4375 1.9375 C4.47177017 5.56382289 7.78715798 8.81200551 11.171875 12.109375 C13 14 13 14 13 15 C11.35 15 9.7 15 8 15 C8 14.34 8 13.68 8 13 C7.34 13 6.68 13 6 13 C6 13.99 6 14.98 6 16 C6.66 16 7.32 16 8 16 C7.67 16.66 7.34 17.32 7 18 C5.68412059 16.87895467 4.37239647 15.75303035 3.0625 14.625 C2.33160156 13.99851562 1.60070312 13.37203125 0.84765625 12.7265625 C-1 11 -1 11 -2 9 C0.97 9.495 0.97 9.495 4 10 C3.34 8.02 2.68 6.04 2 4 C1.34 4 0.68 4 0 4 C0 2.68 0 1.36 0 0 Z " fill="#E5A44D" transform="translate(194,281)"/>
<path d="M0 0 C6.30596952 1.10938353 11.37529486 2.93197901 17 6 C13.30581799 7.231394 10.7943739 6.64432764 7 6 C7 5.34 7 4.68 7 4 C6.01 4.495 6.01 4.495 5 5 C5 6.32 5 7.64 5 9 C5.66 8.67 6.32 8.34 7 8 C6.625 10.4375 6.625 10.4375 6 13 C5.01 13.495 5.01 13.495 4 14 C3.32739649 12.23141309 2.66211605 10.46003984 2 8.6875 C1.62875 7.70136719 1.2575 6.71523437 0.875 5.69921875 C0 3 0 3 0 0 Z " fill="#E0953D" transform="translate(163,238)"/>
<path d="M0 0 C2.62527189 -0.05382106 5.24944713 -0.09358313 7.875 -0.125 C8.62136719 -0.14175781 9.36773437 -0.15851563 10.13671875 -0.17578125 C12.09194461 -0.1933959 14.04742021 -0.10320189 16 0 C16.66 0.66 17.32 1.32 18 2 C12.65460165 6.50062149 7.76532673 9.21470545 1 11 C1 10.34 1 9.68 1 9 C4.22791555 6.8480563 5.28400809 6.79913557 9 7 C9 5.68 9 4.36 9 3 C4.545 2.01 4.545 2.01 0 1 C0 0.67 0 0.34 0 0 Z " fill="#E9A94E" transform="translate(206,320)"/>
<path d="M0 0 C3 0.1875 3 0.1875 6 1 C8 4 8 4 7.625 6.6875 C7.41875 7.450625 7.2125 8.21375 7 9 C5.02 9 3.04 9 1 9 C1 8.34 1 7.68 1 7 C0.01 7.33 -0.98 7.66 -2 8 C-2.125 5.125 -2.125 5.125 -2 2 C-1.34 1.34 -0.68 0.68 0 0 Z " fill="#ECAD40" transform="translate(355,89)"/>
<path d="M0 0 C2.3125 0.375 2.3125 0.375 5 2 C6.85823702 6.18829203 8 10.41525461 8 15 C6.02 15.33 4.04 15.66 2 16 C2.03480469 15.38511719 2.06960938 14.77023438 2.10546875 14.13671875 C2.13253906 13.32847656 2.15960938 12.52023438 2.1875 11.6875 C2.22230469 10.88699219 2.25710938 10.08648437 2.29296875 9.26171875 C1.93418313 6.49189376 1.00709643 5.83627971 -1 4 C-0.6875 1.8125 -0.6875 1.8125 0 0 Z " fill="#F8B836" transform="translate(308,74)"/>
<path d="M0 0 C0.66 0.33 1.32 0.66 2 1 C1.01 2.485 1.01 2.485 0 4 C-0.99 4 -1.98 4 -3 4 C-3 4.66 -3 5.32 -3 6 C-2.01 6.33 -1.02 6.66 0 7 C-0.33 7.99 -0.66 8.98 -1 10 C-3.97 9.505 -3.97 9.505 -7 9 C-7 9.66 -7 10.32 -7 11 C-3.19854082 12.26715306 0.42325696 12.36947994 4.40625 12.62109375 C7 13 7 13 10 15 C7.58299013 14.85870713 5.16649571 14.71213513 2.75 14.5625 C2.06808594 14.52318359 1.38617188 14.48386719 0.68359375 14.44335938 C-2.64448041 14.23333528 -5.80255402 13.98065998 -9 13 C-8.56572515 8.07821839 -6.30904303 5.54540325 -3 2 C-2.01 1.34 -1.02 0.68 0 0 Z " fill="#E59D48" transform="translate(180,320)"/>
<path d="M0 0 C2.875 1 2.875 1 5 2 C4.67 2.99 4.34 3.98 4 5 C-3.92 5.495 -3.92 5.495 -12 6 C-12 5.34 -12 4.68 -12 4 C-10.68 4 -9.36 4 -8 4 C-8 3.01 -8 2.02 -8 1 C-5.21084611 -0.39457694 -3.09726736 -0.1821922 0 0 Z " fill="#F19E2A" transform="translate(392,311)"/>
<path d="M0 0 C7.42857143 -0.28571429 7.42857143 -0.28571429 11 2 C11 2.99 11 3.98 11 5 C11.99 5 12.98 5 14 5 C14 5.66 14 6.32 14 7 C8.72 7 3.44 7 -2 7 C-0.68 6.67 0.64 6.34 2 6 C3.28436734 4.0162233 3.28436734 4.0162233 4 2 C2.68 2 1.36 2 0 2 C0 1.34 0 0.68 0 0 Z " fill="#EFA234" transform="translate(222,310)"/>
<path d="M0 0 C2.61943903 2.61943903 3.44197838 5.57473973 4.625 9 C4.85445312 9.64195312 5.08390625 10.28390625 5.3203125 10.9453125 C7 15.72442336 7 15.72442336 7 18 C6.34 18 5.68 18 5 18 C3.34375 16.171875 3.34375 16.171875 1.5 13.75 C0.8915625 12.96109375 0.283125 12.1721875 -0.34375 11.359375 C-1.79739033 9.28862321 -2.94765743 7.2941068 -4 5 C-2.68 5.33 -1.36 5.66 0 6 C0 4.02 0 2.04 0 0 Z " fill="#E5A551" transform="translate(207,278)"/>
<path d="M0 0 C4.0589816 -0.3183515 6.3474968 -0.39717586 9.875 1.75 C11.96374181 3.96160897 12.68151851 5.02750614 13 8 C4.76765376 7.0501139 4.76765376 7.0501139 2 5 C0.75 2.375 0.75 2.375 0 0 Z " fill="#F2B240" transform="translate(269,307)"/>
<path d="M0 0 C0.33 0.99 0.66 1.98 1 3 C0.67 3.33 0.34 3.66 0 4 C1.32 4.33 2.64 4.66 4 5 C4 4.34 4 3.68 4 3 C5.32 3.33 6.64 3.66 8 4 C5.54481265 5.50537035 3.0861548 7.00444426 0.625 8.5 C-0.07367188 8.92925781 -0.77234375 9.35851562 -1.4921875 9.80078125 C-6.7734375 13 -6.7734375 13 -9 13 C-9 11 -9 11 -7 9 C-5.68 9 -4.36 9 -3 9 C-3.99 7.68 -4.98 6.36 -6 5 C-4.02 3.35 -2.04 1.7 0 0 Z " fill="#EFB54D" transform="translate(351,300)"/>
<path d="M0 0 C0.66 0 1.32 0 2 0 C2 0.66 2 1.32 2 2 C2.66 2 3.32 2 4 2 C4 3.32 4 4.64 4 6 C3.360625 6.103125 2.72125 6.20625 2.0625 6.3125 C1.381875 6.539375 0.70125 6.76625 0 7 C-0.33 7.99 -0.66 8.98 -1 10 C-1.66 10 -2.32 10 -3 10 C-3.33 10.99 -3.66 11.98 -4 13 C-4 12.34 -4 11.68 -4 11 C-5.32 10.67 -6.64 10.34 -8 10 C-7 7 -7 7 -4.5625 5.5625 C-1.84333111 3.90447019 -1.10592885 2.91563061 0 0 Z " fill="#EC9623" transform="translate(422,264)"/>
<path d="M0 0 C2.64 0 5.28 0 8 0 C2.03416856 12.85421412 2.03416856 12.85421412 -3 17 C-2.41903453 11.07415223 -1.23938937 7.23938937 3 3 C2.01 2.67 1.02 2.34 0 2 C0 1.34 0 0.68 0 0 Z " fill="#E5A846" transform="translate(388,261)"/>
<path d="M0 0 C19.28413284 -0.19926199 19.28413284 -0.19926199 26 1 C26.33 1.66 26.66 2.32 27 3 C17.9401941 3.12224626 9.02253886 2.83930594 0 2 C0 1.34 0 0.68 0 0 Z " fill="#F3B236" transform="translate(270,325)"/>
<path d="M0 0 C1.9375 0.375 1.9375 0.375 4 1 C5.60725635 4.21451269 5.05748185 7.43612536 5 11 C2.0625 10.25 2.0625 10.25 -1 9 C-2 7.1875 -2 7.1875 -2 5 C-1.0625 2.25 -1.0625 2.25 0 0 Z " fill="#E99A36" transform="translate(202,273)"/>
<path d="M0 0 C0.93423645 3.01031744 1.04449911 3.86650268 0 7 C-0.66 7 -1.32 7 -2 7 C-2.2475 7.70125 -2.495 8.4025 -2.75 9.125 C-4.17180238 12.39514548 -5.87246288 15.141122 -8 18 C-8.66 18 -9.32 18 -10 18 C-10.33 19.98 -10.66 21.96 -11 24 C-13.31 24.66 -15.62 25.32 -18 26 C-17.195625 25.113125 -16.39125 24.22625 -15.5625 23.3125 C-9.49751667 16.23668612 -3.99103422 8.42551669 0 0 Z " fill="#E4A44E" transform="translate(429,269)"/>
<path d="M0 0 C2.31 0 4.62 0 7 0 C6.67 0.99 6.34 1.98 6 3 C6.38932856 5.14255793 6.38932856 5.14255793 7 7 C6.34 7 5.68 7 5 7 C5 7.66 5 8.32 5 9 C-0.625 9.25 -0.625 9.25 -4 7 C-4 6.34 -4 5.68 -4 5 C-1.03 5.495 -1.03 5.495 2 6 C2 5.01 2 4.02 2 3 C1.34 2.67 0.68 2.34 0 2 C0 1.34 0 0.68 0 0 Z " fill="#E99023" transform="translate(177,324)"/>
<path d="M0 0 C10.61766557 -0.32174744 20.83399618 -0.59770914 31 3 C31.66 3.66 32.32 4.32 33 5 C32.01 5.33 31.02 5.66 30 6 C30 5.34 30 4.68 30 4 C28.865625 4.020625 27.73125 4.04125 26.5625 4.0625 C23 4 23 4 22 3 C19.43317904 2.7868384 16.88389866 2.62298984 14.3125 2.5 C9.46625629 2.26187702 4.78068068 1.90343572 0 1 C0 0.67 0 0.34 0 0 Z " fill="#E49F46" transform="translate(397,313)"/>
<path d="M0 0 C2.0625 0.75 2.0625 0.75 4 2 C4.33 2.99 4.66 3.98 5 5 C3.35 4.67 1.7 4.34 0 4 C-0.12375 4.928125 -0.2475 5.85625 -0.375 6.8125 C-1 10 -1 10 -3 13 C-3 10.69 -3 8.38 -3 6 C-3.144375 6.7425 -3.28875 7.485 -3.4375 8.25 C-3.90187492 10.52027739 -4.41863569 12.75759479 -5 15 C-5.66 15 -6.32 15 -7 15 C-7.57136278 9.40064474 -6.58972776 6.68718883 -3.2890625 2.3828125 C-2 1 -2 1 0 0 Z " fill="#F1C054" transform="translate(308,71)"/>
<path d="M0 0 C0.66 0 1.32 0 2 0 C2 0.66 2 1.32 2 2 C3.98 2 5.96 2 8 2 C8.33 3.32 8.66 4.64 9 6 C9.66 6 10.32 6 11 6 C11 6.99 11 7.98 11 9 C7.97653399 9.2519555 6.3597993 9.20421041 3.6875 7.6875 C3.130625 7.130625 2.57375 6.57375 2 6 C2 5.01 2 4.02 2 3 C1.34 3 0.68 3 0 3 C0 2.01 0 1.02 0 0 Z " fill="#E89E40" transform="translate(200,294)"/>
<path d="M0 0 C0.8353125 0.23396484 0.8353125 0.23396484 1.6875 0.47265625 C9.0038772 2.33882679 14.63723881 1.61060401 22 0 C21.67 0.66 21.34 1.32 21 2 C18.4375 2.625 18.4375 2.625 16 3 C16 3.66 16 4.32 16 5 C12.77208445 7.1519437 11.71599191 7.20086443 8 7 C7.67 6.01 7.34 5.02 7 4 C4.03 3.505 4.03 3.505 1 3 C0.67 2.01 0.34 1.02 0 0 Z " fill="#F3BB4A" transform="translate(319,110)"/>
<path d="M0 0 C2.64 0 5.28 0 8 0 C7.2575 0.556875 6.515 1.11375 5.75 1.6875 C0.38762723 6.19676801 -1.7938862 10.49196428 -4 17 C-4.33 17 -4.66 17 -5 17 C-4.6732039 14.66574212 -4.33859959 12.33257494 -4 10 C-3.855625 8.906875 -3.71125 7.81375 -3.5625 6.6875 C-3 4 -3 4 -1 2 C-0.67 1.34 -0.34 0.68 0 0 Z " fill="#1A0D00" transform="translate(292,185)"/>
<path d="M0 0 C0 0.66 0 1.32 0 2 C-1.32 2 -2.64 2 -4 2 C-4 2.66 -4 3.32 -4 4 C-2.02 4 -0.04 4 2 4 C-0.76223278 6.76223278 -3.20706617 6.57856291 -7 7 C-6.34 6.67 -5.68 6.34 -5 6 C-5 5.34 -5 4.68 -5 4 C-6.32 4 -7.64 4 -9 4 C-9 4.66 -9 5.32 -9 6 C-12.3 6.33 -15.6 6.66 -19 7 C-15.78036326 4.85357551 -12.55570141 3.64118646 -8.9375 2.375 C-8.30005859 2.14554687 -7.66261719 1.91609375 -7.00585938 1.6796875 C-2.261742 0 -2.261742 0 0 0 Z " fill="#E9AD51" transform="translate(384,313)"/>
<path d="M0 0 C0.33 1.32 0.66 2.64 1 4 C0.34 4 -0.32 4 -1 4 C-1 5.65 -1 7.3 -1 9 C-0.01 9 0.98 9 2 9 C2 8.34 2 7.68 2 7 C2.66 7 3.32 7 4 7 C4 7.99 4 8.98 4 10 C1.03 11.65 -1.94 13.3 -5 15 C-4.5188509 9.22621075 -2.81532819 5.04140164 0 0 Z " fill="#EFB44A" transform="translate(344,291)"/>
<path d="M0 0 C0.66 0.33 1.32 0.66 2 1 C1.35550393 4.01217112 0.34977818 6.51655836 -1.0625 9.25 C-1.42472656 9.95640625 -1.78695313 10.6628125 -2.16015625 11.390625 C-2.57587891 12.18726563 -2.57587891 12.18726563 -3 13 C-3.33 13 -3.66 13 -4 13 C-4 11.35 -4 9.7 -4 8 C-3.34 8 -2.68 8 -2 8 C-2.33 7.34 -2.66 6.68 -3 6 C-4.32 6.33 -5.64 6.66 -7 7 C-7 5.68 -7 4.36 -7 3 C-3.535 2.505 -3.535 2.505 0 2 C0 1.34 0 0.68 0 0 Z " fill="#F0AE42" transform="translate(369,222)"/>
<path d="M0 0 C2 3 2 3 2 5 C2.66 5 3.32 5 4 5 C4.16435547 5.87011719 4.16435547 5.87011719 4.33203125 6.7578125 C5.10480776 10.56515041 5.87549953 13.75099907 7.625 17.25 C9.06819808 20.13639615 9.28010342 21.82549455 9 25 C3.31753666 18.15445937 0.51677234 8.78512984 0 0 Z " fill="#EBAF50" transform="translate(241,207)"/>
<path d="M0 0 C1.125 3.75 1.125 3.75 0 6 C1.32 6.33 2.64 6.66 4 7 C1.36 9.97 -1.28 12.94 -4 16 C-5 14 -5 14 -4.00390625 10.7421875 C-3.53110016 9.4502948 -3.05028031 8.16131362 -2.5625 6.875 C-2.31951172 6.21628906 -2.07652344 5.55757813 -1.82617188 4.87890625 C-1.22421679 3.25008662 -0.61297588 1.62470425 0 0 Z " fill="#E4A757" transform="translate(408,280)"/>
<path d="M0 0 C8.38755627 0.71383458 15.22201264 4.13375267 22 9 C19 10 19 10 16.375 9.1875 C14 8 14 8 13 6 C10.47266765 5.34444881 10.47266765 5.34444881 8 5 C8 4.34 8 3.68 8 3 C5.36 2.67 2.72 2.34 0 2 C0 1.34 0 0.68 0 0 Z " fill="#EAB14E" transform="translate(233,263)"/>
<path d="M0 0 C2.97 0.495 2.97 0.495 6 1 C6 1.66 6 2.32 6 3 C6.66 3 7.32 3 8 3 C10 6 10 6 10 9 C7.03 8.505 7.03 8.505 4 8 C4 7.34 4 6.68 4 6 C3.34 5.34 2.68 4.68 2 4 C1.34 3.34 0.68 2.68 0 2 C0 1.34 0 0.68 0 0 Z " fill="#EB9526" transform="translate(188,282)"/>
<path d="M0 0 C0.94101562 0.00322266 1.88203125 0.00644531 2.8515625 0.00976562 C3.83640625 0.01814453 4.82125 0.02652344 5.8359375 0.03515625 C6.82851563 0.03966797 7.82109375 0.04417969 8.84375 0.04882812 C11.2995391 0.0606348 13.75520854 0.07710225 16.2109375 0.09765625 C16.2109375 0.75765625 16.2109375 1.41765625 16.2109375 2.09765625 C9.6109375 2.09765625 3.0109375 2.09765625 -3.7890625 2.09765625 C-4.1190625 2.75765625 -4.4490625 3.41765625 -4.7890625 4.09765625 C-5.4490625 3.10765625 -6.1090625 2.11765625 -6.7890625 1.09765625 C-4.33631109 -0.12871945 -2.7384844 -0.01649689 0 0 Z " fill="#EBB05E" transform="translate(399.7890625,319.90234375)"/>
<path d="M0 0 C0.66 0.33 1.32 0.66 2 1 C0.92807816 2.3218362 -0.15802695 3.63217927 -1.25 4.9375 C-1.85328125 5.66839844 -2.4565625 6.39929688 -3.078125 7.15234375 C-5.10741134 9.10326334 -6.254407 9.61731779 -9 10 C-9 11.65 -9 13.3 -9 15 C-9.66 15 -10.32 15 -11 15 C-11 14.34 -11 13.68 -11 13 C-11.66 12.67 -12.32 12.34 -13 12 C-4.738041 3.55353075 -4.738041 3.55353075 0 0 Z " fill="#EDB44D" transform="translate(269,141)"/>
<path d="M0 0 C0.66 0 1.32 0 2 0 C2 0.66 2 1.32 2 2 C3.093125 1.979375 4.18625 1.95875 5.3125 1.9375 C9 2 9 2 12 3 C12 3.66 12 4.32 12 5 C10.35 5.66 8.7 6.32 7 7 C6.67 6.34 6.34 5.68 6 5 C2.37114676 4.84850702 2.37114676 4.84850702 -1 6 C-1.042721 4.33388095 -1.04063832 2.66617115 -1 1 C-0.67 0.67 -0.34 0.34 0 0 Z " fill="#EB8E21" transform="translate(168,242)"/>
<path d="M0 0 C0 1.32 0 2.64 0 4 C-2.50484597 6.41847197 -3.46013806 7 -7 7 C-7 7.66 -7 8.32 -7 9 C-8.65 9.33 -10.3 9.66 -12 10 C-3.78082192 0 -3.78082192 0 0 0 Z " fill="#EEB04A" transform="translate(363,272)"/>
<path d="M0 0 C0.33 0 0.66 0 1 0 C1 8.58 1 17.16 1 26 C0.34 26 -0.32 26 -1 26 C-1.33 22.7 -1.66 19.4 -2 16 C-1.34 16 -0.68 16 0 16 C0 10.72 0 5.44 0 0 Z " fill="#331800" transform="translate(337,185)"/>
<path d="M0 0 C0 0.66 0 1.32 0 2 C0.99 2.66 1.98 3.32 3 4 C0.36 4.33 -2.28 4.66 -5 5 C-5 4.34 -5 3.68 -5 3 C-5.66 3.165 -6.32 3.33 -7 3.5 C-10.73099794 4.12183299 -14.21873378 4.06408926 -18 4 C-18 3.67 -18 3.34 -18 3 C-15.3754034 2.49779928 -12.75036631 1.99814643 -10.125 1.5 C-9.37863281 1.35691406 -8.63226563 1.21382813 -7.86328125 1.06640625 C-2.2265625 0 -2.2265625 0 0 0 Z " fill="#E8B056" transform="translate(363,320)"/>
<path d="M0 0 C8.57142857 -0.28571429 8.57142857 -0.28571429 12 2 C9.36 2 6.72 2 4 2 C4.99 5.3 5.98 8.6 7 12 C4.2447914 9.2447914 3.2659514 7.77071195 1.8125 4.3125 C1.46832031 3.50425781 1.12414062 2.69601562 0.76953125 1.86328125 C0.51558594 1.24839844 0.26164063 0.63351562 0 0 Z " fill="#E4AA53" transform="translate(221,261)"/>
<path d="M0 0 C3.63 0 7.26 0 11 0 C8.82813579 2.17186421 7.50023469 2.6793248 4.625 3.625 C3.85414063 3.88539063 3.08328125 4.14578125 2.2890625 4.4140625 C0 5 0 5 -4 5 C-4.33 4.01 -4.66 3.02 -5 2 C-3.35 2 -1.7 2 0 2 C0 1.34 0 0.68 0 0 Z " fill="#F2BA4E" transform="translate(328,258)"/>
<path d="M0 0 C5.61 0 11.22 0 17 0 C17 0.33 17 0.66 17 1 C13.7 1.33 10.4 1.66 7 2 C7 2.66 7 3.32 7 4 C5.1875 4.625 5.1875 4.625 3 5 C2.01 4.34 1.02 3.68 0 3 C0 2.01 0 1.02 0 0 Z " fill="#EA9E35" transform="translate(396,322)"/>
<path d="M0 0 C-0.99043705 4.83628305 -1.95698846 9.47618873 -4 14 C-4.33 14 -4.66 14 -5 14 C-5 12.02 -5 10.04 -5 8 C-4.34 8 -3.68 8 -3 8 C-3 6.35 -3 4.7 -3 3 C-5.31 3 -7.62 3 -10 3 C-6.41600853 0.61067235 -4.26804999 0 0 0 Z " fill="#DE9A4C" transform="translate(454,238)"/>
<path d="M0 0 C0.33 0 0.66 0 1 0 C1.33 2.97 1.66 5.94 2 9 C1.67 9 1.34 9 1 9 C0.67 11.64 0.34 14.28 0 17 C-0.33 17 -0.66 17 -1 17 C-1.39278091 15.27478537 -1.76349151 13.54453752 -2.125 11.8125 C-2.33382813 10.84957031 -2.54265625 9.88664062 -2.7578125 8.89453125 C-3.03073754 5.63263688 -2.46873022 3.89124166 -1 1 C-0.67 0.67 -0.34 0.34 0 0 Z " fill="#F1B13C" transform="translate(267,113)"/>
<path d="M0 0 C2 1 4 2 6 3 C6.125 5.875 6.125 5.875 6 9 C5.34 9.66 4.68 10.32 4 11 C4.33 9.02 4.66 7.04 5 5 C4.34 5 3.68 5 3 5 C2.67 6.32 2.34 7.64 2 9 C1.01 9 0.02 9 -1 9 C-0.835 8.2575 -0.67 7.515 -0.5 6.75 C0.11925696 3.80993422 0.11925696 3.80993422 0 0 Z " fill="#F2B94A" transform="translate(326,88)"/>
<path d="M0 0 C0 0.66 0 1.32 0 2 C0.66 2 1.32 2 2 2 C2 2.66 2 3.32 2 4 C2.66 4.33 3.32 4.66 4 5 C3.67 5.99 3.34 6.98 3 8 C0.525 7.01 0.525 7.01 -2 6 C-2 5.34 -2 4.68 -2 4 C-2.66 4 -3.32 4 -4 4 C-4.33 3.01 -4.66 2.02 -5 1 C-2 0 -2 0 0 0 Z " fill="#F5AA2A" transform="translate(261,297)"/>
<path d="M0 0 C4.95 1.98 4.95 1.98 10 4 C8.68 4.33 7.36 4.66 6 5 C6 5.99 6 6.98 6 8 C0.25 6.25 0.25 6.25 -2 4 C-1.01 4 -0.02 4 1 4 C0.67 2.68 0.34 1.36 0 0 Z " fill="#EEBA54" transform="translate(281,311)"/>
<path d="M0 0 C0.66 0 1.32 0 2 0 C2.33 0.99 2.66 1.98 3 3 C3.804375 3.6496875 3.804375 3.6496875 4.625 4.3125 C6 6 6 6 5.6875 9.1875 C5.460625 10.115625 5.23375 11.04375 5 12 C4.34 12 3.68 12 3 12 C2.49663233 10.37604003 1.99741024 8.75079459 1.5 7.125 C1.2215625 6.22007812 0.943125 5.31515625 0.65625 4.3828125 C0 2 0 2 0 0 Z " fill="#EF9122" transform="translate(183,268)"/>
<path d="M0 0 C5.05663427 3.42066436 7.83507897 7.91002391 11 13 C10.67 13.66 10.34 14.32 10 15 C7 13 7 13 6.3125 10.375 C6.209375 9.59125 6.10625 8.8075 6 8 C5.34 8 4.68 8 4 8 C3.67 7.34 3.34 6.68 3 6 C2.01 5.34 1.02 4.68 0 4 C0 2.68 0 1.36 0 0 Z " fill="#E6AD64" transform="translate(192,255)"/>
<path d="M0 0 C7 3.5 7 3.5 14 7 C8.72684667 6.5547115 3.98229776 5.91626837 -1 4 C-0.67 2.68 -0.34 1.36 0 0 Z " fill="#EFB84F" transform="translate(270,106)"/>
<path d="M0 0 C0.99 0.33 1.98 0.66 3 1 C2.38125 1.2475 1.7625 1.495 1.125 1.75 C-1.12347802 2.80249898 -1.12347802 2.80249898 -1.875 4.875 C-3.51822246 7.97886464 -6.05425485 9.20693774 -9 11 C-8.67 9.68 -8.34 8.36 -8 7 C-7.34 7.33 -6.68 7.66 -6 8 C-6 6.68 -6 5.36 -6 4 C-5.34 4 -4.68 4 -4 4 C-2.62689293 2.70766393 -1.28965176 1.37562854 0 0 Z " fill="#EBB356" transform="translate(378,284)"/>
<path d="M0 0 C0.99 0.33 1.98 0.66 3 1 C3 1.66 3 2.32 3 3 C3.66 3.33 4.32 3.66 5 4 C3.02 6.31 1.04 8.62 -1 11 C-1.66 9.68 -2.32 8.36 -3 7 C-2.67 6.01 -2.34 5.02 -2 4 C-1.01 4.33 -0.02 4.66 1 5 C0.67 3.35 0.34 1.7 0 0 Z " fill="#E69C41" transform="translate(427,279)"/>
<path d="M0 0 C1.3271261 3.9813783 1.06915913 7.85045227 1 12 C-0.32 12 -1.64 12 -3 12 C-3.33 12.66 -3.66 13.32 -4 14 C-4.66 13.34 -5.32 12.68 -6 12 C-5.34 11.34 -4.68 10.68 -4 10 C-3.34 10.33 -2.68 10.66 -2 11 C-2.04125 9.741875 -2.0825 8.48375 -2.125 7.1875 C-2.2390374 3.70935927 -2.05925681 3.08888522 0 0 Z " fill="#F6BB2F" transform="translate(305,75)"/>
<path d="M0 0 C4.40081711 0.50295053 6.9419884 1.77209887 10 5 C10.8125 8.75 10.8125 8.75 11 12 C8 10 8 10 7.1875 7 C6.28277997 3.68749183 6.28277997 3.68749183 2.875 2.625 C1.92625 2.41875 0.9775 2.2125 0 2 C0 1.34 0 0.68 0 0 Z " fill="#E2AB3E" transform="translate(321,186)"/>
<path d="M0 0 C1.98 1.32 3.96 2.64 6 4 C4.02 4.99 4.02 4.99 2 6 C2.33 6.99 2.66 7.98 3 9 C-0.37503669 7.8141763 -2.64722731 6.72426311 -5 4 C-2.525 4.495 -2.525 4.495 0 5 C0 3.35 0 1.7 0 0 Z " fill="#EFB859" transform="translate(268,302)"/>
<path d="M0 0 C2 3 2 3 1.625 5.6875 C1.41875 6.450625 1.2125 7.21375 1 8 C-0.98 8 -2.96 8 -5 8 C-5.33 7.01 -5.66 6.02 -6 5 C-5.195625 4.731875 -4.39125 4.46375 -3.5625 4.1875 C-2.716875 3.795625 -1.87125 3.40375 -1 3 C-0.67 2.01 -0.34 1.02 0 0 Z " fill="#F1AA34" transform="translate(262,92)"/>
<path d="M0 0 C1.65 0 3.3 0 5 0 C7.09230769 4.43076923 7.09230769 4.43076923 6.625 7.3125 C6.41875 7.869375 6.2125 8.42625 6 9 C5.38125 8.195625 4.7625 7.39125 4.125 6.5625 C2.25835959 3.96125481 2.25835959 3.96125481 0 3 C0 2.01 0 1.02 0 0 Z " fill="#180A02" transform="translate(326,185)"/>
<path d="M0 0 C0.70898438 0.3196875 1.41796875 0.639375 2.1484375 0.96875 C5.93443289 2.33793189 9.48423489 2.43749232 13.4765625 2.65625 C16 3 16 3 19 5 C16.58299013 4.85870713 14.16649571 4.71213513 11.75 4.5625 C11.06808594 4.52318359 10.38617188 4.48386719 9.68359375 4.44335938 C6.35551959 4.23333528 3.19744598 3.98065998 0 3 C0 2.01 0 1.02 0 0 Z " fill="#DC9F51" transform="translate(171,330)"/>
<path d="M0 0 C0.515625 0.309375 1.03125 0.61875 1.5625 0.9375 C4.66665423 2.29059287 7.65115007 2.61359424 11 3 C7.79619983 5.13586678 6.98060033 5.23132175 3.3125 5.125 C2.10013672 5.09792969 2.10013672 5.09792969 0.86328125 5.0703125 C-0.05904297 5.03550781 -0.05904297 5.03550781 -1 5 C-0.67 3.35 -0.34 1.7 0 0 Z " fill="#E99E3B" transform="translate(201,318)"/>
<path d="M0 0 C0 0.66 0 1.32 0 2 C-0.99 2 -1.98 2 -3 2 C-3 2.66 -3 3.32 -3 4 C-1.35 4 0.3 4 2 4 C-0.35953094 6.35953094 -1.77895617 6.49141413 -5 7 C-5 6.01 -5 5.02 -5 4 C-6.32 3.67 -7.64 3.34 -9 3 C-2.25 0 -2.25 0 0 0 Z " fill="#EFBC52" transform="translate(328,315)"/>
<path d="M0 0 C1.72274487 2.58411731 2.68895522 4.54902656 3.6875 7.4375 C3.95949219 8.19933594 4.23148437 8.96117187 4.51171875 9.74609375 C5.04729142 12.21829721 4.80445309 13.62983284 4 16 C3.67 14.35 3.34 12.7 3 11 C2.34 11 1.68 11 1 11 C0.67 7.37 0.34 3.74 0 0 Z " fill="#E9AF52" transform="translate(370,169)"/>
<path d="M0 0 C1.65 0.33 3.3 0.66 5 1 C4.67 2.65 4.34 4.3 4 6 C2.02 6 0.04 6 -2 6 C-1.34 5.67 -0.68 5.34 0 5 C0 3.35 0 1.7 0 0 Z " fill="#F6B83A" transform="translate(295,95)"/>
<path d="M0 0 C-0.33 0.99 -0.66 1.98 -1 3 C-5.455 3.495 -5.455 3.495 -10 4 C-9.67 3.01 -9.34 2.02 -9 1 C-6.03421164 -0.16513114 -3.15436364 -0.08762121 0 0 Z " fill="#EEAF42" transform="translate(358,323)"/>
<path d="M0 0 C2.29199177 0.14063135 4.58359186 0.28765943 6.875 0.4375 C8.15117187 0.51871094 9.42734375 0.59992188 10.7421875 0.68359375 C14 1 14 1 16 2 C12.25816125 4.49455917 10.43756964 4.37606522 6 4 C2.5625 2.5 2.5625 2.5 0 1 C0 0.67 0 0.34 0 0 Z " fill="#F1BD55" transform="translate(298,319)"/>
<path d="M0 0 C6.875 3.75 6.875 3.75 8 6 C6.35 5.67 4.7 5.34 3 5 C3.66 6.32 4.32 7.64 5 9 C0.125 7.25 0.125 7.25 -1 5 C-0.01 5 0.98 5 2 5 C2 4.01 2 3.02 2 2 C1.34 2 0.68 2 0 2 C0 1.34 0 0.68 0 0 Z " fill="#E3A651" transform="translate(209,298)"/>
<path d="M0 0 C0 0.66 0 1.32 0 2 C0.99 2 1.98 2 3 2 C2.1875 3.9375 2.1875 3.9375 1 6 C0.01 6.33 -0.98 6.66 -2 7 C-2.66 5.02 -3.32 3.04 -4 1 C-2 0 -2 0 0 0 Z " fill="#F1AD3E" transform="translate(366,292)"/>
<path d="M0 0 C4.39291786 3.31909349 6.8227865 5.79887886 9 11 C8.01 10.67 7.02 10.34 6 10 C5.3125 7.9375 5.3125 7.9375 5 6 C3.35 5.67 1.7 5.34 0 5 C0 3.35 0 1.7 0 0 Z " fill="#EFB558" transform="translate(356,149)"/>
<path d="M0 0 C0 0.99 0 1.98 0 3 C0.99 3.99 1.98 4.98 3 6 C-0.3 6.33 -3.6 6.66 -7 7 C-4.66666667 4.66666667 -2.33333333 2.33333333 0 0 Z " fill="#F6BF49" transform="translate(303,104)"/>
<path d="M0 0 C0.33 0.99 0.66 1.98 1 3 C-0.37899549 5.75799098 -2.37672362 6.43852596 -5 8 C-6.75149165 9.58245275 -6.75149165 9.58245275 -8 11 C-8.66 10.34 -9.32 9.68 -10 9 C-9.44570313 8.51789063 -8.89140625 8.03578125 -8.3203125 7.5390625 C-7.59585937 6.90742187 -6.87140625 6.27578125 -6.125 5.625 C-5.40570313 4.99851562 -4.68640625 4.37203125 -3.9453125 3.7265625 C-2.5923402 2.52573166 -1.2791655 1.2791655 0 0 Z " fill="#F0BB5F" transform="translate(351,100)"/>
<path d="M0 0 C-0.33 0.99 -0.66 1.98 -1 3 C-4.375 3.125 -4.375 3.125 -8 3 C-8.66 2.34 -9.32 1.68 -10 1 C-6.78548731 -0.60725635 -3.56387464 -0.05748185 0 0 Z " fill="#F2B84B" transform="translate(300,85)"/>
<path d="M0 0 C0.66 0 1.32 0 2 0 C2 0.66 2 1.32 2 2 C3.65 2 5.3 2 7 2 C7 3.32 7 4.64 7 6 C5.35 5.67 3.7 5.34 2 5 C2 4.34 2 3.68 2 3 C1.34 3 0.68 3 0 3 C0 2.01 0 1.02 0 0 Z " fill="#EA9929" transform="translate(200,294)"/>
<path d="M0 0 C0.33 0.66 0.66 1.32 1 2 C0.22265625 4.1640625 0.22265625 4.1640625 -0.9375 6.625 C-1.31777344 7.44226563 -1.69804687 8.25953125 -2.08984375 9.1015625 C-2.39019531 9.72804687 -2.69054687 10.35453125 -3 11 C-3.99 11 -4.98 11 -6 11 C-4.54955729 6.89041233 -2.48889248 3.56741255 0 0 Z " fill="#EDB762" transform="translate(255,154)"/>
<path d="M0 0 C4.97093824 0.41153737 9.44508386 0.79600832 14 3 C13.01 3.66 12.02 4.32 11 5 C11 4.34 11 3.68 11 3 C9.39125 3.0928125 9.39125 3.0928125 7.75 3.1875 C3.89133813 2.99456691 2.71182212 2.60334924 0 0 Z " fill="#E5A456" transform="translate(416,314)"/>
<path d="M0 0 C-0.350625 0.61875 -0.70125 1.2375 -1.0625 1.875 C-1.5265625 2.926875 -1.5265625 2.926875 -2 4 C-1.67 4.66 -1.34 5.32 -1 6 C-3.31 6 -5.62 6 -8 6 C-8 5.34 -8 4.68 -8 4 C-6.68 4 -5.36 4 -4 4 C-4 3.01 -4 2.02 -4 1 C-2 0 -2 0 0 0 Z " fill="#EBA735" transform="translate(388,311)"/>
<path d="M0 0 C2.92879371 0.62759865 5.36095629 1.58622659 8 3 C8 4.65 8 6.3 8 8 C6.85073734 7.04578192 5.70569459 6.08647955 4.5625 5.125 C3.92441406 4.59132813 3.28632813 4.05765625 2.62890625 3.5078125 C1 2 1 2 0 0 Z " fill="#EAB45C" transform="translate(237,285)"/>
<path d="M0 0 C0.33 0 0.66 0 1 0 C1.33 5.94 1.66 11.88 2 18 C-1.01186215 13.48220677 -1.13606035 10.60322997 -0.5625 5.25 C-0.46066406 4.26515625 -0.35882813 3.2803125 -0.25390625 2.265625 C-0.17011719 1.51796875 -0.08632812 0.7703125 0 0 Z " fill="#E9A63C" transform="translate(241,192)"/>
<path d="M0 0 C2 1 2 1 3 2 C3.99 2.33 4.98 2.66 6 3 C3.08291076 4.98362069 1.87619096 4.9876191 -1.75 4.625 C-2.8225 4.41875 -3.895 4.2125 -5 4 C-3.35 2.68 -1.7 1.36 0 0 Z " fill="#E8A94B" transform="translate(393,307)"/>
<path d="M0 0 C2.31 0.33 4.62 0.66 7 1 C5.35 2.65 3.7 4.3 2 6 C1.67 5.34 1.34 4.68 1 4 C0.34 4 -0.32 4 -1 4 C-0.67 2.68 -0.34 1.36 0 0 Z " fill="#F0B245" transform="translate(347,294)"/>
<path d="M0 0 C0.33 0 0.66 0 1 0 C0.67 2.97 0.34 5.94 0 9 C-0.99 9 -1.98 9 -3 9 C-2.67 6.69 -2.34 4.38 -2 2 C-1.34 2 -0.68 2 0 2 C0 1.34 0 0.68 0 0 Z " fill="#EA9A29" transform="translate(411,277)"/>
<path d="M0 0 C0.66 0.33 1.32 0.66 2 1 C1.67 1.66 1.34 2.32 1 3 C-0.32 3 -1.64 3 -3 3 C-3.33 4.32 -3.66 5.64 -4 7 C-5.32 6.67 -6.64 6.34 -8 6 C-2.25 1.125 -2.25 1.125 0 0 Z " fill="#E2A04E" transform="translate(437,244)"/>
<path d="M0 0 C1.32 0 2.64 0 4 0 C4 1.32 4 2.64 4 4 C1.69 4 -0.62 4 -3 4 C-1.75 2 -1.75 2 0 0 Z " fill="#DCA636" transform="translate(297,186)"/>
<path d="M0 0 C0.66 0.33 1.32 0.66 2 1 C2.59355614 3.64860427 2.74209269 6.29197322 3 9 C2.01 9.495 2.01 9.495 1 10 C1 9.01 1 8.02 1 7 C0.34 7 -0.32 7 -1 7 C-0.67 4.69 -0.34 2.38 0 0 Z " fill="#F5B332" transform="translate(287,90)"/>
<path d="M0 0 C1.21236328 0.04060547 1.21236328 0.04060547 2.44921875 0.08203125 C3.06410156 0.11683594 3.67898437 0.15164063 4.3125 0.1875 C1.27724514 2.21100324 0.11823798 2.50874018 -3.375 2.8125 C-4.18324219 2.88726562 -4.99148437 2.96203125 -5.82421875 3.0390625 C-6.43910156 3.08804687 -7.05398437 3.13703125 -7.6875 3.1875 C-5.26849268 0.20484049 -3.789448 -0.16475861 0 0 Z " fill="#E2A24E" transform="translate(202.6875,330.8125)"/>
<path d="M0 0 C-0.33 0.99 -0.66 1.98 -1 3 C-3.64 3.33 -6.28 3.66 -9 4 C-6.3515138 0.02727069 -4.69305063 -1.56435021 0 0 Z " fill="#E89F32" transform="translate(402,306)"/>
<path d="M0 0 C0.33 0.66 0.66 1.32 1 2 C1.66 2 2.32 2 3 2 C3 3.98 3 5.96 3 8 C1.68 7.67 0.36 7.34 -1 7 C-0.67 4.69 -0.34 2.38 0 0 Z " fill="#EC9829" transform="translate(204,276)"/>
<path d="M0 0 C0.66 0 1.32 0 2 0 C2.33 0.99 2.66 1.98 3 3 C1.625 4.5 1.625 4.5 0 6 C-0.66 6 -1.32 6 -2 6 C-2.33 6.66 -2.66 7.32 -3 8 C-3.33 7.01 -3.66 6.02 -4 5 C-3.34 5 -2.68 5 -2 5 C-2 4.01 -2 3.02 -2 2 C-1.34 1.67 -0.68 1.34 0 1 C0 0.67 0 0.34 0 0 Z " fill="#E8A046" transform="translate(422,288)"/>
<path d="M0 0 C0.66 0.66 1.32 1.32 2 2 C1.625 3.9375 1.625 3.9375 1 6 C1 6.99 1 7.98 1 9 C-0.65 6.69 -2.3 4.38 -4 2 C-3.34 1.67 -2.68 1.34 -2 1 C-1.34 1.33 -0.68 1.66 0 2 C0 1.34 0 0.68 0 0 Z " fill="#E7AA4B" transform="translate(232,272)"/>
<path d="M0 0 C5.875 3.75 5.875 3.75 7 6 C5.68 6.33 4.36 6.66 3 7 C2.67 6.01 2.34 5.02 2 4 C1.34 3.67 0.68 3.34 0 3 C0 2.01 0 1.02 0 0 Z " fill="#ECB656" transform="translate(256,273)"/>
<path d="M0 0 C1 2 1 2 0.9375 4 C0 6 0 6 -3.0625 7.25 C-4.031875 7.4975 -5.00125 7.745 -6 8 C-2.25 2.25 -2.25 2.25 0 0 Z " fill="#E6A251" transform="translate(424,255)"/>
<path d="M0 0 C-1.65 1.65 -3.3 3.3 -5 5 C-5.33 3.35 -5.66 1.7 -6 0 C-3.50907189 -1.24546405 -2.58919267 -0.7767578 0 0 Z " fill="#EFB84A" transform="translate(360,242)"/>
<path d="M0 0 C2.475 0.495 2.475 0.495 5 1 C5 2.98 5 4.96 5 7 C2.47411298 4.63707344 1.11179163 3.33537489 0 0 Z " fill="#ECAF4A" transform="translate(250,232)"/>
<path d="M0 0 C2.875 -0.1875 2.875 -0.1875 6 0 C6.66 0.99 7.32 1.98 8 3 C5.36 2.67 2.72 2.34 0 2 C0 1.34 0 0.68 0 0 Z " fill="#F1A532" transform="translate(244,319)"/>
<path d="M0 0 C2.475 0.495 2.475 0.495 5 1 C5 1.66 5 2.32 5 3 C5.66 3 6.32 3 7 3 C6.67 3.66 6.34 4.32 6 5 C3.5625 4.1875 3.5625 4.1875 1 3 C0.67 2.01 0.34 1.02 0 0 Z " fill="#EC9C28" transform="translate(212,303)"/>
<path d="M0 0 C1.125 3.75 1.125 3.75 0 6 C0.66 6 1.32 6 2 6 C2 6.66 2 7.32 2 8 C0.02 8.99 0.02 8.99 -2 10 C-1.54177532 6.53058454 -1.10868317 3.32604951 0 0 Z " fill="#ECBB69" transform="translate(341,296)"/>
<path d="M0 0 C4.42857143 5.14285714 4.42857143 5.14285714 5 9 C4.34 9 3.68 9 3 9 C0.56839395 5.63316085 0 4.26649636 0 0 Z " fill="#E9B25B" transform="translate(365,160)"/>
<path d="M0 0 C0.33 0.99 0.66 1.98 1 3 C-0.65 3 -2.3 3 -4 3 C-4 2.34 -4 1.68 -4 1 C-4.99 0.67 -5.98 0.34 -7 0 C-4.3333581 -1.33332095 -2.83319697 -0.67102033 0 0 Z " fill="#F3B430" transform="translate(291,316)"/>
<path d="M0 0 C0 0.66 0 1.32 0 2 C-3 4 -3 4 -5.1875 3.625 C-5.785625 3.41875 -6.38375 3.2125 -7 3 C-5.40442685 -0.19114631 -3.35905282 0 0 0 Z " fill="#F6B029" transform="translate(341,311)"/>
<path d="M0 0 C1.32 0.33 2.64 0.66 4 1 C-1.75 5 -1.75 5 -4 5 C-4.33 4.01 -4.66 3.02 -5 2 C-3.35 2 -1.7 2 0 2 C0 1.34 0 0.68 0 0 Z " fill="#EFBE65" transform="translate(355,303)"/>
<path d="M0 0 C1 2 1 2 0.3125 4.5 C-1.15567038 7.29651501 -2.09303901 7.93411431 -5 9 C-3.7508258 5.54074837 -2.32472205 2.85306797 0 0 Z " fill="#ECB756" transform="translate(350,282)"/>
<path d="M0 0 C-2.35968744 2.09749995 -3.54616994 2.96905704 -6.75 3.1875 C-7.86375 3.0946875 -7.86375 3.0946875 -9 3 C-6.07868595 -0.19953443 -4.37453972 -1.45817991 0 0 Z " fill="#E9B154" transform="translate(377,266)"/>
<path d="M0 0 C0.99 0.33 1.98 0.66 3 1 C3.73046875 3.06640625 3.73046875 3.06640625 4.1875 5.5625 C4.34605469 6.38878906 4.50460938 7.21507812 4.66796875 8.06640625 C4.77753906 8.70449219 4.88710937 9.34257812 5 10 C2.35534962 6.8745041 1.15585285 3.91211733 0 0 Z " fill="#DE9B50" transform="translate(168,253)"/>
<path d="M0 0 C3.68754757 0.49831724 5.60490662 1.10067643 8 4 C5.36 3.67 2.72 3.34 0 3 C0 2.01 0 1.02 0 0 Z " fill="#DE9A4D" transform="translate(172,241)"/>
<path d="M0 0 C0.99 0 1.98 0 3 0 C2.6875 1.875 2.6875 1.875 2 4 C1.01 4.66 0.02 5.32 -1 6 C-1.042721 4.33388095 -1.04063832 2.66617115 -1 1 C-0.67 0.67 -0.34 0.34 0 0 Z " fill="#EDB24B" transform="translate(361,235)"/>
<path d="M0 0 C1.485 0.99 1.485 0.99 3 2 C2.67 3.65 2.34 5.3 2 7 C1.34 7 0.68 7 0 7 C0 4.69 0 2.38 0 0 Z " fill="#F7A424" transform="translate(245,212)"/>
<path d="M0 0 C0.33 0 0.66 0 1 0 C1.26218749 3.14624993 1.24754367 4.61837017 -0.5 7.3125 C-1.2425 8.1478125 -1.2425 8.1478125 -2 9 C-3 6 -3 6 -1.5625 2.8125 C-1.046875 1.884375 -0.53125 0.95625 0 0 Z " fill="#ECB454" transform="translate(248,165)"/>
<path d="M0 0 C2.31 0 4.62 0 7 0 C6.01 1.485 6.01 1.485 5 3 C2.375 3.1875 2.375 3.1875 0 3 C0 2.01 0 1.02 0 0 Z " fill="#F4B33A" transform="translate(282,113)"/>
<path d="M0 0 C0.99 0 1.98 0 3 0 C3.33 1.65 3.66 3.3 4 5 C3.34 5 2.68 5 2 5 C2 4.34 2 3.68 2 3 C0.68 2.67 -0.64 2.34 -2 2 C-1.34 1.34 -0.68 0.68 0 0 Z " fill="#FAA728" transform="translate(356,91)"/>
</svg>
